<svg xmlns="http://www.w3.org/2000/svg" height="512" viewBox="0 0 64 64" width="512"><path d="m23 23c3.309 0 6-2.691 6-6s-2.691-6-6-6-6 2.691-6 6 2.691 6 6 6zm0-10c2.206 0 4 1.794 4 4s-1.794 4-4 4-4-1.794-4-4 1.794-4 4-4z"></path><path d="m7.083 25.542-.19.765.839.838-3.062 3.937 4.248 4.248 3.938-3.062.839.839.764-.191c.794-.198 1.573-.439 2.344-.701l7.197 7.199 2-2v-10.264c.825-.666 1.627-1.364 2.381-2.118l1.841-1.84c5.661-5.661 8.778-13.187 8.778-21.192v-1h-1c-8.005 0-15.531 3.118-21.192 8.778l-1.841 1.84c-.754.754-1.452 1.556-2.118 2.381h-10.263l-2 2 7.198 7.198c-.262.772-.503 1.552-.701 2.345zm.248 5.375 5.763-7.409 3.398 3.398-7.409 5.762zm16.669 5.669-5.152-5.151c1.805-.763 3.531-1.697 5.152-2.796zm11.971-27.029-5.529-5.529c2.11-.589 4.302-.931 6.54-1.011-.079 2.239-.422 4.43-1.011 6.54zm-19.59 3.476 1.841-1.84c2.907-2.906 6.342-5.089 10.087-6.47l6.969 6.969c-1.381 3.745-3.564 7.18-6.47 10.087l-1.841 1.84c-3.375 3.375-7.559 5.815-12.14 7.116l4.681-3.641-6.602-6.602-3.641 4.682c1.301-4.582 3.742-8.767 7.116-12.141zm-12.967 2.967h7.947c-1.099 1.621-2.033 3.346-2.795 5.151z"></path><path d="m46.405 38.922h2.001v2.184h-2.001z" transform="matrix(.928 -.372 .372 .928 -11.481 20.5)"></path><path d="m49.551 42.685-1.858.742 4.454 11.135 5.146 5.145 1.414-1.414-4.854-4.855z"></path><path d="m51.677 35h-9.091l-10.23 10.23-2.821-4.23h-8.949l-19.586 19.586v2.414h62v-7.414l-5.147-5.147zm-12.677 26h-35.586l18-18h7.051l5.703 8.555 4.832 4.859zm22 0h-20v-5.414l-5.223-5.223-2.291-3.436 9.928-9.927h6.909l5.824 14.562 4.853 4.852z"></path><path d="m9.808 57.192h2v2h-2z" transform="matrix(.707 -.707 .707 .707 -37.983 24.686)"></path><path d="m18.293 48.707h2v2h-2z" transform="matrix(.707 -.707 .707 .707 -29.497 28.201)"></path><path d="m15.465 51.535h2v2h-2z" transform="matrix(.707 -.707 .707 .707 -32.325 27.03)"></path><path d="m12.636 54.364h2v2h-2z" transform="matrix(.707 -.707 .707 .707 -35.155 25.858)"></path><path d="m25.489 44.852h2v1.763h-2z" transform="matrix(.832 -.555 .555 .832 -20.92 22.374)"></path><path d="m28.714 47.268-1.664 1.109 4.118 6.178 1.145 1.173 1.415-1.415-.951-.95z"></path><path d="m49 33h2v-24h-1.796l4.796-5.481 4.796 5.481h-1.796v32h2v-30h4.204l-9.204-10.519-9.204 10.519h4.204z"></path><path d="m57 43h2v2h-2z"></path><path d="m44 27h4.204l-9.204-10.519-9.204 10.519h4.204v12h2v-14h-1.796l4.796-5.481 4.796 5.481h-1.796v4h2z"></path><path d="m42 31h2v2h-2z"></path></svg>