<svg xmlns="http://www.w3.org/2000/svg" viewBox="0 0 64 64" width="512" height="512"><g><g><path d="M29,48H6V29H41a1,1,0,0,0,1-1V20a1,1,0,0,0-1-1H12.833L40.1,11.693a1,1,0,0,0,.707-1.224L38.739,2.741a1,1,0,0,0-1.224-.707L2.741,11.352a1,1,0,0,0-.707,1.224S4,19.983,4,20a1,1,0,0,0,.293.707L10.586,27H6V26a1,1,0,0,0-2,0V49a1,1,0,0,0,1,1H29a1,1,0,0,0,0-2Zm2.586-21H27.414l-6-6h4.172Zm-3.172-6h4.172l6,6H34.414Zm-3.828,6H20.414l-6-6h4.172ZM40,25.586,35.414,21H40ZM24.7,13.751l-4.029,1.08L24.91,7.482,28.938,6.4ZM31.671,5.67,35.7,4.591l-4.243,7.348-4.029,1.08ZM17.935,15.563l-4.03,1.08,4.243-7.349,4.029-1.08Zm-6.762,1.812L7.144,18.454l4.243-7.349,4.028-1.079ZM34.19,11.207l3.242-5.616,1.187,4.43Zm-25.536.63L5.411,17.454l-1.186-4.43ZM7.414,21h4.172l6,6H13.414Z"></path><path d="M29.447,37.1l-10-5A1,1,0,0,0,18,33V43a1,1,0,0,0,1.447.9l10-5a1,1,0,0,0,0-1.79ZM20,41.382V34.618L26.764,38Z"></path><path d="M58,58a4,4,0,0,0,4-4,1,1,0,0,0-2,0,2,2,0,0,1-2,2H36a2,2,0,0,1-2-2V44a1,1,0,0,0-2,0V54a4,4,0,0,0,4,4h5v2H34a1,1,0,0,0,0,2H60a1,1,0,0,0,0-2H53V58Zm-7,2H43V58h8Z"></path><path d="M58,36H56a2,2,0,0,1-2-2,4,4,0,0,0-4-4H44a4,4,0,0,0-4,4,2,2,0,0,1-2,2H36a4,4,0,0,0-4,4,1,1,0,0,0,2,0,2,2,0,0,1,2-2h2a4,4,0,0,0,4-4,2,2,0,0,1,2-2h6a2,2,0,0,1,2,2,4,4,0,0,0,4,4h2a2,2,0,0,1,2,2V50a1,1,0,0,0,2,0V40A4,4,0,0,0,58,36Z"></path><path d="M40,47a7,7,0,1,0,7-7A7.008,7.008,0,0,0,40,47Zm7-5a5,5,0,1,1-5,5A5.006,5.006,0,0,1,47,42Z"></path><path d="M47,50a3,3,0,1,0-3-3A3,3,0,0,0,47,50Zm0-4a1,1,0,1,1-1,1A1,1,0,0,1,47,46Z"></path><path d="M49,36a1,1,0,0,0,0-2H45a1,1,0,0,0,0,2Z"></path><circle cx="38" cy="53" r="1"></circle><path d="M48,22h6a3,3,0,0,0,2.737-1.785l3.02.755A1,1,0,0,0,61,20V14a1,1,0,0,0-1.243-.97l-3.02.755A3,3,0,0,0,54,12H48a3,3,0,0,0-3,3v4A3,3,0,0,0,48,22Zm11-3.281-2-.5V15.781l2-.5ZM47,15a1,1,0,0,1,1-1h6a1,1,0,0,1,1,1v4a1,1,0,0,1-1,1H48a1,1,0,0,1-1-1Z"></path></g></g></svg>