<svg xmlns="http://www.w3.org/2000/svg" height="512" viewBox="0 0 64 64" width="512"><g><path d="m13 19h2v9h-2z"></path><path d="m13 34h2v9h-2z"></path><path d="m49 34h2v9h-2z"></path><path d="m49 19h2v9h-2z"></path><path d="m48 2h-32a3.009 3.009 0 0 0 -3 3v8h2v-3h34v3h2v-8a3.009 3.009 0 0 0 -3-3zm1 6h-34v-3a1 1 0 0 1 1-1h32a1 1 0 0 1 1 1z"></path><path d="m49 52h-34v-3h-2v10a3 3 0 0 0 3 3h32a3 3 0 0 0 3-3v-10h-2zm-1 8h-32a1 1 0 0 1 -1-1v-5h34v5a1 1 0 0 1 -1 1z"></path><circle cx="32" cy="57" r="2"></circle><path d="m52.1 32a5 5 0 1 0 0-2h-9.1v-13h9.1a5 5 0 1 0 0-2h-10.1a1 1 0 0 0 -1 1v14h-4.1a5 5 0 0 0 -9.8 0h-4.1v-14a1 1 0 0 0 -1-1h-10.1a5 5 0 1 0 0 2h9.1v13h-9.1a5 5 0 1 0 0 2h9.1v13h-9.1a5 5 0 1 0 0 2h10.1a1 1 0 0 0 1-1v-14h4.1a5 5 0 0 0 9.8 0h4.1v14a1 1 0 0 0 1 1h10.1a5 5 0 1 0 0-2h-9.1v-13zm4.9-4a3 3 0 1 1 -3 3 3.009 3.009 0 0 1 3-3zm0-15a3 3 0 1 1 -3 3 3.009 3.009 0 0 1 3-3zm-50 6a3 3 0 1 1 3-3 3.009 3.009 0 0 1 -3 3zm0 15a3 3 0 1 1 3-3 3.009 3.009 0 0 1 -3 3zm0 15a3 3 0 1 1 3-3 3.009 3.009 0 0 1 -3 3zm25-15a3 3 0 1 1 3-3 3.009 3.009 0 0 1 -3 3zm25 9a3 3 0 1 1 -3 3 3.009 3.009 0 0 1 3-3z"></path></g></svg>