<svg xmlns="http://www.w3.org/2000/svg" height="512" viewBox="0 0 64 64" width="512"><path d="m40.866 15.423c-.526-.747-1.117-1.459-1.756-2.116l-1.435 1.394c.566.583 1.089 1.213 1.556 1.875z"></path><path d="m9.202 23.323-.335 2.677h2.329l-3.196 5.113-3.196-5.113h2.101l.245-2.444c1-10.009 9.34-17.556 19.398-17.556 5.204 0 10.099 2.027 13.784 5.708l1.413-1.415c-4.062-4.058-9.459-6.293-15.197-6.293-11.09 0-20.285 8.322-21.389 19.357l-.064.643h-3.899l6.804 10.887 6.804-10.887h-3.671l.053-.429c.967-7.737 7.577-13.571 15.374-13.571 3.211 0 6.294.976 8.916 2.822l1.151-1.635c-2.96-2.085-6.441-3.187-10.067-3.187-8.804 0-16.267 6.587-17.358 15.323z"></path><path d="m6 61h2v2h-2z"></path><path d="m6 57h2v2h-2z"></path><path d="m2.234 49h3.766v6h2v-8h-2.234l4.234-7.057 4.234 7.057h-2.234v12h2v-10h3.766l-7.766-12.943z"></path><path d="m19.234 32h3.766v23h2v-25h-2.234l4.234-7.056 4.234 7.056h-2.234v21h2v-19h3.766l-7.766-12.944z"></path><path d="m29 53h2v2h-2z"></path><path d="m29 57h2v2h-2z"></path><path d="m55.223 15.782c2.263-1.415 3.777-3.922 3.777-6.782 0-4.411-3.589-8-8-8s-8 3.589-8 8c0 2.86 1.514 5.367 3.777 6.782-4.536 1.714-7.777 6.089-7.777 11.218v8c0 2.206 1.794 4 4 4h1v20c0 2.206 1.794 4 4 4 1.2 0 2.266-.542 3-1.382.734.84 1.8 1.382 3 1.382 2.206 0 4-1.794 4-4v-20h1c2.206 0 4-1.794 4-4v-8c0-5.129-3.241-9.504-7.777-11.218zm-10.223-6.782c0-3.309 2.691-6 6-6s6 2.691 6 6-2.691 6-6 6-6-2.691-6-6zm8.966 8.449c-.17 1.992-1.427 3.551-2.966 3.551-1.534 0-2.789-1.55-2.961-3.552.936-.291 1.93-.448 2.961-.448 1.032 0 2.028.157 2.966.449zm7.034 17.551c0 1.103-.897 2-2 2h-1v-14h-2v36c0 1.103-.897 2-2 2s-2-.897-2-2v-25h-2v25c0 1.103-.897 2-2 2s-2-.897-2-2v-36h-2v14h-1c-1.103 0-2-.897-2-2v-8c0-3.741 2.068-7.004 5.118-8.719.49 2.695 2.492 4.719 4.882 4.719s4.392-2.024 4.882-4.719c3.05 1.715 5.118 4.978 5.118 8.719z"></path><path d="m50 25h2v2h-2z"></path></svg>