<svg xmlns="http://www.w3.org/2000/svg" height="512" viewBox="0 0 64 64" width="512"><g><path d="m60 27c-1.654 0-3 1.346-3 3v15h-2v-38h1c.553 0 1-.447 1-1v-4c0-.553-.447-1-1-1h-48c-.553 0-1 .447-1 1v4c0 .553.447 1 1 1h1v38h-2v-15c0-1.654-1.346-3-3-3s-3 1.346-3 3v18c0 1.302.839 2.402 2 2.816v11.184c0 .553.447 1 1 1h4c.553 0 1-.447 1-1v-11h6v11c0 .553.447 1 1 1h32c.553 0 1-.447 1-1v-11h6v11c0 .553.447 1 1 1h4c.553 0 1-.447 1-1v-11.184c1.161-.414 2-1.514 2-2.816v-18c0-1.654-1.346-3-3-3zm-51-24h46v2h-46zm2 4h42v38h-4v-5h1c.553 0 1-.447 1-1v-6c0-.553-.447-1-1-1h-4.937c.178-1.558.774-3.019 1.728-4.259.37.164.778.259 1.209.259 1.654 0 3-1.346 3-3s-1.346-3-3-3-3 1.346-3 3c0 .488.128.942.335 1.349-1.303 1.624-2.094 3.573-2.287 5.651h-3.638c-1.069-2.631-3.498-4.565-6.411-4.931v-1.254c1.161-.414 2-1.514 2-2.816 0-1.654-1.346-3-3-3s-3 1.346-3 3c0 1.302.839 2.402 2 2.816v1.254c-2.913.366-5.342 2.299-6.411 4.931h-3.638c-.192-2.078-.983-4.027-2.287-5.651.209-.407.337-.861.337-1.349 0-1.654-1.346-3-3-3s-3 1.346-3 3 1.346 3 3 3c.431 0 .839-.095 1.21-.259.954 1.241 1.55 2.702 1.728 4.259h-4.938c-.553 0-1 .447-1 1v6c0 .553.447 1 1 1h1v5h-4zm17 45v9h-2v-9zm2 0h4v9h-4zm6 0h2v9h-2zm-12-2v-2h16v2zm-9-12v-4h9.069c-.041.328-.069.661-.069 1v3zm11 8v-11c0-3.309 2.691-6 6-6s6 2.691 6 6v11zm5-23c0-.552.448-1 1-1s1 .448 1 1-.448 1-1 1-1-.448-1-1zm8.931 11h9.069v4h-9v-3c0-.339-.028-.672-.069-1zm7.069-9c0-.552.448-1 1-1s1 .448 1 1-.448 1-1 1-1-.448-1-1zm-31 1c-.552 0-1-.448-1-1s.448-1 1-1 1 .448 1 1-.448 1-1 1zm-9 35h-2v-10h2zm-3-12c-.552 0-1-.448-1-1v-18c0-.552.448-1 1-1s1 .448 1 1v16c0 .553.447 1 1 1h9v2zm13-9h7v6h-1c-.553 0-1 .447-1 1v4c0 .553.447 1 1 1h1v9h-7zm23 21v-9h1c.553 0 1-.447 1-1v-4c0-.553-.447-1-1-1h-1v-6h7v21zm17 0v-10h2v10zm4-13c0 .552-.448 1-1 1h-11v-2h9c.553 0 1-.447 1-1v-16c0-.552.448-1 1-1s1 .448 1 1z"></path></g></svg>