<svg xmlns="http://www.w3.org/2000/svg" xmlns:xlink="http://www.w3.org/1999/xlink" x="0px" y="0px" viewBox="0 0 512 512" style="enable-background:new 0 0 512 512;" xml:space="preserve" width="512" height="512">
<g>
	<path d="M504.5,336.677c-4.142,0-7.5,3.358-7.5,7.5v8.532H264.016c-16.991,0-30.978-13.076-32.446-29.692   c1.132-0.466,2.261-0.938,3.386-1.43c2.73-1.194,4.495-3.892,4.495-6.872v-31.621c36.478-22.75,61.431-62.316,63.919-107.772   h24.775c4.142,0,7.5-3.358,7.5-7.5C335.645,75.285,260.36,0,167.823,0S0,75.285,0,167.823c0,4.142,3.358,7.5,7.5,7.5h24.775   c2.487,45.456,27.44,85.022,63.918,107.771v31.621c0,2.98,1.765,5.678,4.496,6.872c11.528,5.041,23.425,8.726,35.585,11.06v36.094   h-0.516c-4.142,0-7.5,3.358-7.5,7.5v80.162c0,4.142,3.358,7.5,7.5,7.5h0.516v8.532c0,17.396,14.152,31.548,31.548,31.548   s31.548-14.152,31.548-31.548v-8.532h0.516c4.142,0,7.5-3.358,7.5-7.5v-7.481L497,487.03v17.47c0,4.142,3.358,7.5,7.5,7.5   s7.5-3.358,7.5-7.5V344.177C512,340.035,508.642,336.677,504.5,336.677z M167.823,15c81.751,0,148.716,64.526,152.641,145.323   H303.37C299.464,88.94,240.163,32.064,167.823,32.064c-72.341,0-131.642,56.876-135.548,128.258H15.182   C19.106,79.526,86.071,15,167.823,15z M47.064,167.823c0-66.586,54.172-120.758,120.758-120.758   c66.586,0,120.758,54.172,120.758,120.758c0,66.586-54.172,120.758-120.758,120.758C101.236,288.581,47.064,234.409,47.064,167.823   z M111.193,291.19c17.246,7.948,36.428,12.391,56.629,12.391s39.383-4.442,56.629-12.39v18.536   c-18.094,7.248-37.12,10.919-56.629,10.919s-38.536-3.671-56.629-10.919V291.19z M151.274,334.826   c5.475,0.54,10.993,0.819,16.548,0.819s11.073-0.279,16.548-0.819v33.915h-33.097V334.826z M143.258,448.903v-65.162h49.129v65.162   H143.258z M184.371,472.436c0,9.125-7.423,16.548-16.548,16.548s-16.548-7.423-16.548-16.548v-8.532h33.097V472.436z    M207.387,433.793v-34.019h249.02c4.142,0,7.5-3.358,7.5-7.5s-3.358-7.5-7.5-7.5h-249.02v-8.533c0-4.142-3.358-7.5-7.5-7.5h-0.516   v-36.094c5.99-1.15,11.916-2.631,17.765-4.44c3.849,22.4,23.399,39.502,46.88,39.502H497v17.065h-8.528c-4.142,0-7.5,3.358-7.5,7.5   s3.358,7.5,7.5,7.5H497V471.9L207.387,433.793z"></path>
	<path d="M136.274,167.823c0,17.396,14.152,31.548,31.548,31.548s31.548-14.152,31.548-31.548s-14.152-31.548-31.548-31.548   S136.274,150.427,136.274,167.823z M184.371,167.823c0,9.125-7.423,16.548-16.548,16.548s-16.548-7.423-16.548-16.548   s7.423-16.548,16.548-16.548S184.371,158.698,184.371,167.823z"></path>
	<path d="M105.107,105.107c30.7-30.7,78.656-34.7,114.028-9.511c3.374,2.402,8.057,1.616,10.46-1.759   c2.403-3.374,1.615-8.057-1.759-10.46c-19.741-14.058-43.973-20.759-68.224-18.876c-24.551,1.908-47.675,12.563-65.111,30   c-17.437,17.437-28.091,40.561-30,65.111c-1.885,24.253,4.818,48.482,18.876,68.224c1.463,2.055,3.771,3.15,6.116,3.15   c1.505,0,3.025-0.452,4.344-1.391c3.374-2.403,4.162-7.086,1.759-10.46C70.407,183.762,74.407,135.807,105.107,105.107z"></path>
	<path d="M176.034,271.144c24.551-1.908,47.675-12.562,65.111-29.999c17.437-17.437,28.091-40.561,30-65.112   c1.885-24.253-4.819-48.482-18.877-68.224c-2.403-3.374-7.085-4.162-10.46-1.759c-3.374,2.403-4.162,7.086-1.759,10.46   c25.189,35.373,21.189,83.328-9.51,114.028c-30.7,30.7-78.656,34.699-114.028,9.51c-3.374-2.402-8.057-1.616-10.46,1.759   c-2.403,3.374-1.615,8.057,1.759,10.46c17.559,12.503,38.665,19.188,60.182,19.188   C170.667,271.456,173.351,271.353,176.034,271.144z"></path>
</g>















</svg>