<svg xmlns="http://www.w3.org/2000/svg" xmlns:xlink="http://www.w3.org/1999/xlink" x="0px" y="0px" viewBox="0 0 512.078 512.078" style="enable-background:new 0 0 512.078 512.078;" xml:space="preserve" width="512" height="512">
<g>
	<path d="M357.468,122.551C357.468,122.551,357.468,122.551,357.468,122.551c-4.874-4.873-12.803-4.873-17.677,0l-53.918,53.914   c-4.82,4.818-4.821,12.86-0.001,17.68l34.596,34.593c4.811,4.811,12.866,4.81,17.677,0l53.92-53.916   c4.817-4.819,4.818-12.86-0.001-17.678L357.468,122.551z M329.306,216.362l-31.06-31.057l50.383-50.38l31.06,31.057   L329.306,216.362z"></path>
	<path d="M337.1,282.979c-4.873-4.873-12.803-4.873-17.677,0l-34.595,34.593c-4.82,4.818-4.818,12.86,0,17.679l53.92,53.915   c4.811,4.811,12.866,4.81,17.677,0l34.596-34.593c4.726-4.889,4.867-12.813,0-17.679L337.1,282.979z M347.586,376.79l-50.384-50.38   l31.06-31.057l50.383,50.379L347.586,376.79z"></path>
	<path d="M191.357,282.973c-4.873-4.873-12.803-4.873-17.677,0l-53.918,53.914c-4.82,4.818-4.821,12.86-0.001,17.68l34.596,34.593   c0,0,0,0,0,0c2.437,2.437,5.637,3.654,8.838,3.654s6.402-1.218,8.839-3.654l53.92-53.916c4.817-4.818,4.818-12.86,0-17.678   L191.357,282.973z M163.195,376.784l-31.06-31.057l50.384-50.38l31.06,31.057L163.195,376.784z"></path>
	<path d="M173.913,122.545c-4.873-4.873-12.803-4.873-17.677,0l-34.595,34.593c-4.73,4.888-4.864,12.813,0,17.679l53.92,53.915   c4.811,4.811,12.866,4.81,17.677,0l34.596-34.593c4.819-4.819,4.819-12.86,0-17.679L173.913,122.545z M184.399,216.356   l-50.384-50.38l31.06-31.057l50.383,50.379L184.399,216.356z"></path>
	<path d="M504.75,431.518c4.858-13.367,7.328-27.412,7.328-41.77c0-37.527-17.358-73.015-46.708-96.141   c4.425-24.853,4.434-50.479,0.027-75.335c29.547-23.37,46.452-58.201,46.452-95.942c0-13.991-2.345-27.715-6.969-40.791   c-0.18,0.064-0.36,0.127-0.54,0.191c10.331-41.086-25.049-80.994-67.074-75.41c-2.404,0.314-7.075,1.341-7.075,1.341   c-12.152-5.622-30.331-7.66-40.681-7.66c-37.387,0-72.895,17.311-96.018,46.539c-24.804-4.414-50.243-4.42-75.049-0.016   c-23.115-29.038-58.602-46.257-95.799-46.257c-13.696,0-27.146,2.248-39.977,6.683l0.414,1.199   c-5.207-1.443-10.631-2.21-16.142-2.21c-33.615,0-60.962,27.328-60.962,60.92c0,4.811,0.557,9.522,1.621,14.064   c-4.835,13.339-7.292,27.349-7.292,41.673c0,37.19,17.161,72.568,46.142,95.692c-4.396,24.803-4.395,50.374,0.004,75.176   C17.277,316.589,0,352.058,0,389.404c0,14.401,2.475,28.47,7.356,41.865c-1.022,4.517-1.568,9.174-1.568,13.804   c0,33.565,27.309,60.872,60.877,60.872c4.733,0,9.335-0.561,13.76-1.587c13.41,4.892,27.498,7.375,41.913,7.375   c37.774,0,72.647-16.941,96.021-46.54c24.792,4.412,50.295,4.415,75.088,0.008c23.108,29.424,58.799,46.876,96.293,46.876   c14.413,0,28.497-2.482,41.902-7.371c24.324,5.681,50.26-4.604,64.24-25.282C505.322,465.483,508.53,447.919,504.75,431.518z    M445.385,491.289c-14.004-0.01-27.468-6.625-36.102-17.653l64.672-64.094C507.13,435.987,487.85,491.264,445.385,491.289z    M447.591,348.469c8.266,11.124,13.078,24.457,13.886,38.241c-13.147-3.601-27.361-2.658-39.9,2.699   C431.867,376.696,440.571,362.968,447.591,348.469z M401.773,459.545c-1.445-4.453-2.236-9.199-2.236-14.128   c0-25.295,20.58-45.873,45.877-45.873c4.855,0,9.534,0.764,13.929,2.168L401.773,459.545z M386.704,461.482   c-13.838-0.808-27.211-5.649-38.365-13.976c14.425-6.939,28.223-15.592,41.084-25.97   C384.049,434.087,383.097,448.318,386.704,461.482z M497.078,389.748c0,6.892-0.665,13.696-1.947,20.368   c-4.714-6.624-10.797-12.346-18.043-16.768c-0.168-0.103-0.348-0.172-0.522-0.26c0.569-22.013-7.358-43.608-22.254-60.023   c2.908-7.478,5.379-15.129,7.419-22.917C484.058,330.378,497.078,359.301,497.078,389.748z M496.849,122.33   c0,30.617-12.676,59.059-35.083,79.385c-2.041-7.81-4.515-15.483-7.428-22.982c14.732-16.376,22.557-37.812,22.004-59.68   c0.209-0.102,0.42-0.199,0.622-0.322c7.201-4.395,13.255-10.075,17.956-16.647C496.187,108.721,496.849,115.485,496.849,122.33z    M433.836,22.211c28.478-7.272,57.225,14.991,57.225,44.449c0,14.486-6.757,27.416-17.277,35.829L409.1,38.384   C415.286,30.508,424.111,24.665,433.836,22.211z M399.307,66.66c0-4.854,0.764-9.532,2.168-13.927l57.838,57.564   c-4.454,1.445-9.2,2.236-14.129,2.236C419.887,112.533,399.307,91.955,399.307,66.66z M388.872,89.76   c-12.661-10.147-26.22-18.634-40.387-25.462c11.074-8.149,24.308-12.895,37.987-13.698C382.942,63.49,383.782,77.399,388.872,89.76   z M445.184,127.533c5.561,0,10.945-0.764,16.067-2.168c-0.797,13.652-5.525,26.853-13.651,37.916   c-6.903-14.259-15.436-27.771-25.503-40.307C429.222,125.905,437.015,127.533,445.184,127.533z M389.51,15.001   c6.947,0,13.825,0.667,20.568,1.975c-6.871,4.868-12.952,11.254-17.2,18.535c-21.939-0.573-43.464,7.287-59.864,22.076   c-7.529-2.914-15.189-5.386-22.944-7.413C330.296,27.97,359.201,15.001,389.51,15.001z M122.645,15.268   c30.123,0,58.966,12.876,79.18,34.895c-7.768,2.029-15.441,4.503-22.982,7.422c-16.353-14.611-37.706-22.363-59.486-21.81   c-0.048-0.086-0.091-0.175-0.142-0.258c-4.389-7.296-10.227-13.482-17.011-18.284C108.905,15.94,115.736,15.268,122.645,15.268z    M64.295,163.187c-7.958-10.985-12.596-24.05-13.387-37.553c12.622,3.457,26.218,2.724,38.388-2.092   C79.449,135.891,71.085,149.178,64.295,163.187z M38.316,102.713c-10.488-8.414-17.221-21.325-17.221-35.786   c0-25.294,20.58-45.872,45.876-45.872c14.608,0,27.633,6.871,36.041,17.54L38.316,102.713z M110.612,52.801   c1.445,4.453,2.236,9.199,2.236,14.127c0,25.295-20.58,45.873-45.877,45.873c-4.855,0-9.533-0.764-13.928-2.168L110.612,52.801z    M125.681,50.863c13.542,0.79,26.638,5.449,37.646,13.452c-13.93,6.718-27.271,15.041-39.75,24.968   C128.404,77.105,129.142,63.496,125.681,50.863z M15.307,122.597c0-6.891,0.664-13.694,1.945-20.365   c4.702,6.573,10.756,12.254,17.958,16.65c0.183,0.111,0.374,0.197,0.563,0.292c0.016,0.009,0.031,0.018,0.047,0.027   c-0.578,21.766,7.148,43.132,21.71,59.486c-2.916,7.501-5.393,15.177-7.436,22.99C28.129,181.468,15.307,152.707,15.307,122.597z    M112.542,445.073c0,4.855-0.764,9.533-2.168,13.928l-57.837-57.564c4.454-1.445,9.199-2.236,14.128-2.236   C91.961,399.201,112.542,419.779,112.542,445.073z M66.804,490.809c-25.343,0-45.962-20.6-45.962-45.92   c0-13.871,6.516-27.167,17.405-35.787l64.645,64.067C94.239,484.298,80.914,490.809,66.804,490.809z M122.976,421.974   c12.661,10.147,26.221,18.634,40.388,25.463c-11.074,8.149-24.308,12.896-37.989,13.699   C128.907,448.245,128.067,434.335,122.976,421.974z M66.665,384.201c-5.561,0-10.945,0.764-16.067,2.167   c0.797-13.652,5.525-26.853,13.651-37.916c6.903,14.26,15.436,27.772,25.503,40.308C82.628,385.829,74.835,384.201,66.665,384.201z    M15,389.404c0-30.268,12.937-59.136,35.09-79.358c2.04,7.801,4.511,15.464,7.42,22.954c-14.725,16.369-22.55,37.792-22.005,59.649   c-0.143,0.075-0.293,0.131-0.433,0.216c-7.296,4.452-13.415,10.223-18.142,16.906C15.65,403.103,15,396.298,15,389.404z    M122.338,496.733c-6.961,0-13.829-0.674-20.561-1.98c4.138-2.933,7.851-6.485,11.286-10.219c5.977-6.496,6.977-9.496,6.977-9.496   c23,1,42.963-6.605,58.803-20.89c7.534,2.916,15.201,5.389,22.962,7.417C181.471,484.023,152.989,496.733,122.338,496.733z    M116.078,395.7c-37.354-37.351-57.926-87.012-57.926-139.833c0-52.822,20.572-102.483,57.926-139.834   c38.556-38.553,89.201-57.829,139.846-57.829c52.091,0,102.958,20.943,139.846,57.829c37.354,37.351,57.926,87.012,57.926,139.834   c0,52.821-20.572,102.482-57.926,139.833C318.659,472.806,193.189,472.806,116.078,395.7z M310.005,461.576   c7.741-2.021,15.388-4.484,22.904-7.389c15.892,14.487,36.633,22.423,57.935,22.421c4.028,0,5.005,4.473,7.535,7.52   c3.452,4.159,7.443,7.869,11.867,10.98c-6.714,1.298-13.564,1.968-20.507,1.968C359.314,497.077,330.245,483.971,310.005,461.576z"></path>
</g>















</svg>