<svg xmlns="http://www.w3.org/2000/svg" xmlns:xlink="http://www.w3.org/1999/xlink" x="0px" y="0px" viewBox="0 0 512 512" style="enable-background:new 0 0 512 512;" xml:space="preserve">
<g>
	<g>
		<path d="M399.5,22.5C370.552,22.5,347,46.051,347,75s23.552,52.5,52.5,52.5S452,103.949,452,75S428.448,22.5,399.5,22.5z     M399.5,37.5c17.96,0,33.005,12.694,36.651,29.58c-20.154-2-38.58-11.212-52.297-26.147C388.62,38.735,393.917,37.5,399.5,37.5z     M399.5,112.5c-20.678,0-37.5-16.822-37.5-37.5c0-9.663,3.675-18.483,9.7-25.139c16.691,18.803,39.576,30.244,64.606,32.299    C432.954,99.424,417.729,112.5,399.5,112.5z"></path>
	</g>
</g>
<g>
	<g>
		<path d="M489.5,444.5c-2.629,0-5.153,0.458-7.5,1.29V437c0-12.407-10.094-22.5-22.5-22.5H422v-62h52.5c4.143,0,7.5-3.358,7.5-7.5    V165c0-4.136,3.364-7.5,7.5-7.5c4.143,0,7.5-3.358,7.5-7.5c0-4.142-3.357-7.5-7.5-7.5c-12.406,0-22.5,10.093-22.5,22.5v142.5    h-30.808C445.937,297.963,452,284.679,452,270V170c0-15.164-12.337-27.5-27.5-27.5h-50c-15.163,0-27.5,12.336-27.5,27.5v32.5    h-68.5v-15H301c4.143,0,7.5-3.358,7.5-7.5V30c0-4.142-3.357-7.5-7.5-7.5h-30c-4.143,0-7.5,3.358-7.5,7.5v172.5h-15V30    c0-4.142-3.357-7.5-7.5-7.5h-30c-4.143,0-7.5,3.358-7.5,7.5v150c0,4.142,3.357,7.5,7.5,7.5h22.5v15H165V170    c0-11.727-7.381-21.757-17.739-25.704C158.13,134.67,165,120.626,165,105V75c0-28.949-23.552-52.5-52.5-52.5S60,46.051,60,75v30    c0,15.626,6.87,29.67,17.739,39.296C67.381,148.243,60,158.273,60,170v100c0,14.679,6.063,27.963,15.808,37.5H45V165    c0-12.407-10.094-22.5-22.5-22.5c-4.143,0-7.5,3.358-7.5,7.5c0,4.142,3.357,7.5,7.5,7.5c4.136,0,7.5,3.364,7.5,7.5v180    c0,4.142,3.357,7.5,7.5,7.5H90v62H52.5C40.094,414.5,30,424.593,30,437v8.79c-2.347-0.833-4.871-1.29-7.5-1.29    C10.094,444.5,0,454.593,0,467c0,12.407,10.094,22.5,22.5,22.5S45,479.407,45,467v-30c0-4.136,3.364-7.5,7.5-7.5H105v16.29    c-8.729,3.096-15,11.432-15,21.21c0,12.407,10.094,22.5,22.5,22.5S135,479.407,135,467c0-9.777-6.271-18.114-15-21.21V429.5h30    v22.19c-0.004,0.104-0.016,0.205-0.016,0.31c0,0.105,0.011,0.206,0.016,0.31V482c0,4.142,3.357,7.5,7.5,7.5h197    c4.143,0,7.5-3.358,7.5-7.5v-52.5h30v16.29c-8.729,3.096-15,11.432-15,21.21c0,12.407,10.094,22.5,22.5,22.5S422,479.407,422,467    c0-9.777-6.271-18.114-15-21.21V429.5h52.5c4.136,0,7.5,3.364,7.5,7.5v30c0,12.407,10.094,22.5,22.5,22.5S512,479.407,512,467    C512,454.593,501.906,444.5,489.5,444.5z M278.5,37.5h15v135h-15V37.5z M22.5,474.5c-4.136,0-7.5-3.364-7.5-7.5s3.364-7.5,7.5-7.5    s7.5,3.364,7.5,7.5S26.636,474.5,22.5,474.5z M75,75c0-20.678,16.822-37.5,37.5-37.5S150,54.322,150,75v2.5h-15.139    c-5.653-6.325-13.747-10-22.361-10s-16.708,3.675-22.361,10H75V75z M75,105V92.5h18.791c2.502,0,4.84-1.248,6.232-3.327    c2.797-4.178,7.462-6.673,12.477-6.673s9.68,2.495,12.477,6.673c1.393,2.079,3.73,3.327,6.232,3.327H150V105    c0,20.678-16.822,37.5-37.5,37.5S75,125.678,75,105z M112.5,474.5c-4.136,0-7.5-3.364-7.5-7.5s3.364-7.5,7.5-7.5    s7.5,3.364,7.5,7.5S116.636,474.5,112.5,474.5z M120,414.5h-15v-62h15V414.5z M150,414.5h-15V345c0-4.142-3.357-7.5-7.5-7.5H45    v-15h105V414.5z M150,307.5h-37.5c-18.11,0-33.261-12.904-36.745-30H150V307.5z M150,209.69c-0.004,0.104-0.016,0.205-0.016,0.31    s0.011,0.206,0.016,0.31v22.19h-7.5c-20.678,0-37.5-16.822-37.5-37.5v-15c0-4.142-3.357-7.5-7.5-7.5S90,175.858,90,180v15    c0,28.949,23.552,52.5,52.5,52.5h7.5v15H75V170c0-6.893,5.607-12.5,12.5-12.5h50c6.893,0,12.5,5.607,12.5,12.5V209.69z     M218.5,172.5v-135h15v135H218.5z M347,474.5H165v-15h182V474.5z M347,269.981c0,0.039,0,174.519,0,174.519H165v-227h182V269.981z     M362,247.5h7.5c28.948,0,52.5-23.551,52.5-52.5v-15c0-4.142-3.357-7.5-7.5-7.5s-7.5,3.358-7.5,7.5v15    c0,20.678-16.822,37.5-37.5,37.5H362V170c0-6.893,5.607-12.5,12.5-12.5h50c6.893,0,12.5,5.607,12.5,12.5v92.5h-75V247.5z     M362,277.5h74.245c-3.484,17.096-18.635,30-36.745,30H362V277.5z M384.5,337.5c-4.143,0-7.5,3.358-7.5,7.5v69.5h-15v-92h105v15    H384.5z M399.5,474.5c-4.136,0-7.5-3.364-7.5-7.5s3.364-7.5,7.5-7.5s7.5,3.364,7.5,7.5S403.636,474.5,399.5,474.5z M407,414.5h-15    v-62h15V414.5z M489.5,474.5c-4.136,0-7.5-3.364-7.5-7.5s3.364-7.5,7.5-7.5s7.5,3.364,7.5,7.5S493.636,474.5,489.5,474.5z"></path>
	</g>
</g>
<g>
	<g>
		<path d="M324.499,262.5H187.5c-4.143,0-7.5,3.358-7.5,7.5c0,4.142,3.357,7.5,7.5,7.5h136.999c4.143,0,7.5-3.358,7.5-7.5    C331.999,265.858,328.642,262.5,324.499,262.5z"></path>
	</g>
</g>
<g>
</g>
<g>
</g>
<g>
</g>
<g>
</g>
<g>
</g>
<g>
</g>
<g>
</g>
<g>
</g>
<g>
</g>
<g>
</g>
<g>
</g>
<g>
</g>
<g>
</g>
<g>
</g>
<g>
</g>
</svg>