<svg xmlns="http://www.w3.org/2000/svg" height="480pt" viewBox="0 0 480 480" width="480pt"><path d="m288 296h-8.878906c10.777344-10.519531 16.859375-24.9375 16.878906-40v-2.71875c22.078125-7.769531 35.335938-30.328125 31.378906-53.394531-3.957031-23.070313-23.972656-39.921875-47.378906-39.886719h-112c-8.835938 0-16 7.164062-16 16v32c-.011719 20.351562 12.8125 38.496094 32 45.28125v2.71875c.019531 15.0625 6.101562 29.480469 16.878906 40h-8.878906c-30.929688 0-56 25.070312-56 56v120c0 4.417969 3.582031 8 8 8s8-3.582031 8-8v-120c0-22.089844 17.910156-40 40-40h96c22.089844 0 40 17.910156 40 40v120c0 4.417969 3.582031 8 8 8s8-3.582031 8-8v-120c0-30.929688-25.070312-56-56-56zm-120-88v-32h112c14.460938.027344 27.105469 9.746094 30.851562 23.714844 3.746094 13.964844-2.34375 28.710937-14.851562 35.964844v-27.679688c0-4.417969-3.582031-8-8-8h-96c-4.417969 0-8 3.582031-8 8v27.679688c-9.890625-5.710938-15.988281-16.257813-16-27.679688zm32 48v-40h80v40c0 22.089844-17.910156 40-40 40s-40-17.910156-40-40zm0 0"></path><path d="m184 352c-4.417969 0-8 3.582031-8 8v112c0 4.417969 3.582031 8 8 8s8-3.582031 8-8v-112c0-4.417969-3.582031-8-8-8zm0 0"></path><path d="m296 352c-4.417969 0-8 3.582031-8 8v112c0 4.417969 3.582031 8 8 8s8-3.582031 8-8v-112c0-4.417969-3.582031-8-8-8zm0 0"></path><path d="m257.28125 368.558594c4.285156-4.449219 6.695312-10.378906 6.71875-16.558594 0-4.417969-3.582031-8-8-8s-8 3.582031-8 8c-.003906 2.617188-1.289062 5.066406-3.441406 6.558594-2.667969 1.757812-6.128906 1.757812-8.796875 0-2.273438-1.417969-3.6875-3.878906-3.761719-6.558594 0-4.417969-3.582031-8-8-8s-8 3.582031-8 8c.023438 6.179688 2.433594 12.109375 6.71875 16.558594l-6.71875 46.320312c-.261719 1.9375.195312 3.898438 1.28125 5.519532l16 24c1.484375 2.214843 3.972656 3.539062 6.640625 3.539062 2.664063 0 5.152344-1.324219 6.636719-3.539062l16-24c1.085937-1.621094 1.542968-3.582032 1.28125-5.519532zm-17.28125 57.042968-8-11.523437 5.839844-38.078125h4.320312l5.839844 38.078125zm0 0"></path><path d="m176 64c-4.417969 0-8 3.582031-8 8s3.582031 8 8 8h128c4.417969 0 8-3.582031 8-8v-32c0-4.417969-3.582031-8-8-8h-128c-4.417969 0-8 3.582031-8 8s3.582031 8 8 8h120v16zm0 0"></path><path d="m320 112c4.417969 0 8-3.582031 8-8s-3.582031-8-8-8h-32c-4.417969 0-8 3.582031-8 8v32c0 4.417969 3.582031 8 8 8h32c4.417969 0 8-3.582031 8-8s-3.582031-8-8-8h-24v-16zm0 0"></path><path d="m224 96c-4.417969 0-8 3.582031-8 8v32c0 4.417969 3.582031 8 8 8h32c4.417969 0 8-3.582031 8-8v-32c0-4.417969-3.582031-8-8-8zm24 32h-16v-16h16zm0 0"></path><path d="m152 104v32c0 4.417969 3.582031 8 8 8h32c4.417969 0 8-3.582031 8-8v-32c0-4.417969-3.582031-8-8-8h-32c-4.417969 0-8 3.582031-8 8zm16 8h16v16h-16zm0 0"></path><path d="m456 96h-88v-72c0-13.253906-10.746094-24-24-24h-208c-13.253906 0-24 10.746094-24 24v72h-88c-13.253906 0-24 10.746094-24 24v208c0 4.417969 3.582031 8 8 8s8-3.582031 8-8v-208c0-4.417969 3.582031-8 8-8h88v168c0 4.417969 3.582031 8 8 8s8-3.582031 8-8v-256c0-4.417969 3.582031-8 8-8h208c4.417969 0 8 3.582031 8 8v256c0 4.417969 3.582031 8 8 8s8-3.582031 8-8v-168h88c4.417969 0 8 3.582031 8 8v216c0 4.417969 3.582031 8 8 8s8-3.582031 8-8v-216c0-13.253906-10.746094-24-24-24zm0 0"></path><path d="m440 144c4.417969 0 8-3.582031 8-8s-3.582031-8-8-8h-48c-4.417969 0-8 3.582031-8 8v32c0 4.417969 3.582031 8 8 8h48c4.417969 0 8-3.582031 8-8s-3.582031-8-8-8h-40v-16zm0 0"></path><path d="m384 232c0 4.417969 3.582031 8 8 8h48c4.417969 0 8-3.582031 8-8v-32c0-4.417969-3.582031-8-8-8h-48c-4.417969 0-8 3.582031-8 8zm16-24h32v16h-32zm0 0"></path><path d="m392 272h48c4.417969 0 8-3.582031 8-8s-3.582031-8-8-8h-48c-4.417969 0-8 3.582031-8 8s3.582031 8 8 8zm0 0"></path><path d="m88 128h-48c-4.417969 0-8 3.582031-8 8v32c0 4.417969 3.582031 8 8 8h48c4.417969 0 8-3.582031 8-8v-32c0-4.417969-3.582031-8-8-8zm-8 32h-32v-16h32zm0 0"></path><path d="m88 208c4.417969 0 8-3.582031 8-8s-3.582031-8-8-8h-48c-4.417969 0-8 3.582031-8 8v32c0 4.417969 3.582031 8 8 8h48c4.417969 0 8-3.582031 8-8s-3.582031-8-8-8h-40v-16zm0 0"></path><path d="m88 256h-48c-4.417969 0-8 3.582031-8 8s3.582031 8 8 8h48c4.417969 0 8-3.582031 8-8s-3.582031-8-8-8zm0 0"></path><path d="m464 384h-8v-8c0-13.253906-10.746094-24-24-24h-16c-13.253906 0-24 10.746094-24 24v8h-8c-8.835938 0-16 7.164062-16 16v64c0 8.835938 7.164062 16 16 16h80c8.835938 0 16-7.164062 16-16v-64c0-8.835938-7.164062-16-16-16zm-56-8c0-4.417969 3.582031-8 8-8h16c4.417969 0 8 3.582031 8 8v8h-32zm56 88h-80v-32h48c4.417969 0 8-3.582031 8-8s-3.582031-8-8-8h-48v-16h80zm0 0"></path><path d="m64 344c8.835938 0 16 7.164062 16 16 0 4.417969 3.582031 8 8 8s8-3.582031 8-8c-.011719-14.582031-9.878906-27.3125-24-30.960938v-17.039062c0-4.417969-3.582031-8-8-8s-8 3.582031-8 8v17.039062c-15.554688 4.066407-25.679688 19.042969-23.652344 34.996094 2.027344 15.949219 15.574219 27.917969 31.652344 27.964844 8.835938 0 16 7.164062 16 16s-7.164062 16-16 16-16-7.164062-16-16c0-4.417969-3.582031-8-8-8s-8 3.582031-8 8c.011719 14.582031 9.878906 27.3125 24 30.960938v17.039062c0 4.417969 3.582031 8 8 8s8-3.582031 8-8v-17.039062c15.554688-4.066407 25.679688-19.042969 23.652344-34.996094-2.027344-15.949219-15.574219-27.917969-31.652344-27.964844-8.835938 0-16-7.164062-16-16s7.164062-16 16-16zm0 0"></path></svg>