<svg xmlns="http://www.w3.org/2000/svg" viewBox="0 0 64 64" width="512" height="512"><g data-name="Location map"><path d="M32,30A10,10,0,1,1,42,20,10.011,10.011,0,0,1,32,30Zm0-18a8,8,0,1,0,8,8A8.009,8.009,0,0,0,32,12Z"></path><path d="M61.94,60.658l-8-22A1,1,0,0,0,53,38H41.017C45.45,32.228,50,25.072,50,20a18,18,0,0,0-36,0c0,5.072,4.55,12.228,8.983,18H11a1,1,0,0,0-.94.658l-8,22A1,1,0,0,0,3,62H61a1,1,0,0,0,.94-1.342ZM43.061,50l-1.454-4H54.482l1.454,4Zm10.693-6H44.881l-1.454-4H52.3ZM41.3,40l1.454,4H40.18a1,1,0,0,0-.94,1.341L40.933,50H25.387l1.562-4.684A1,1,0,0,0,26,44H22.247L23.7,40h.855c3.426,4.256,6.433,7.392,6.725,7.694a1,1,0,0,0,1.438,0c.292-.3,3.3-3.438,6.725-7.694ZM32,4A16.019,16.019,0,0,1,48,20c0,7.806-12.8,22.086-16,25.54C28.8,42.086,16,27.806,16,20A16.019,16.019,0,0,1,32,4ZM11.7,40h9.873l-1.454,4H10.246ZM8.064,50h5.869L10.3,60H4.428Zm4.363,10L16.06,50h3.553L16.279,60Zm5.96,0,3.562-10.684A1,1,0,0,0,21,48H8.791l.727-2h15.1l-1.562,4.684A1,1,0,0,0,24,52H56.663l.728,2H23a1,1,0,0,0-.949.684L20.279,60Zm32.732-4,1.454,4H41V56ZM31,56v4H22.388l1.333-4Zm2,4V56h6v4Zm21.7,0-1.454-4h4.871l1.454,4Z"></path></g></svg>