<svg xmlns="http://www.w3.org/2000/svg" height="512" viewBox="0 0 64 64" width="512"><path d="m44.484 8.048-.969-1.75c-.801.443-1.545.996-2.212 1.642l1.392 1.438c.541-.525 1.143-.972 1.789-1.33z"></path><path d="m48.565 7c3.117 0 5.969 1.714 7.444 4.472l1.764-.943c-1.824-3.411-5.352-5.529-9.208-5.529-1.367 0-2.693.258-3.942.768l.755 1.852c1.008-.412 2.08-.62 3.187-.62z"></path><path d="m63 15.435c0-7.959-6.476-14.435-14.435-14.435-3.856 0-7.481 1.501-10.207 4.228l-1.39 1.39c-.533-.395-1.171-.618-1.847-.618-1.721 0-3.121 1.4-3.121 3.121 0 .666.227 1.313.619 1.846l-11.312 11.312c-.884-.786-2.034-1.279-3.307-1.279-2.682 0-4.861 2.128-4.978 4.781l-12.022 12.823v3.396h3.396l11.969-11.221 5.721 5.721-2.586 2.586-1.5-1.5-4.414 4.414 2.022 2.022-14.608 15.582v3.396h3.396l15.582-14.608 2.022 2.022 4.414-4.414-1.5-1.5 2.586-2.586 5.721 5.721-11.221 11.969v3.396h3.396l12.823-12.022c2.653-.117 4.781-2.296 4.781-4.978 0-1.273-.493-2.423-1.279-3.307l11.311-11.311c.533.395 1.171.618 1.847.618 1.721 0 3.121-1.4 3.121-3.121 0-.666-.227-1.313-.619-1.846l1.391-1.391c2.727-2.727 4.228-6.352 4.228-10.207zm-14.435-12.435c6.857 0 12.435 5.578 12.435 12.435 0 3.321-1.293 6.444-3.642 8.793l-1.358 1.358-17.586-17.586 1.358-1.358c2.349-2.349 5.471-3.642 8.793-3.642zm-15.394 24c-1.005 0-1.949.389-2.668 1.089l-6.089-6.089 9.586-9.586 17.586 17.586-9.586 9.586-6.09-6.09c.701-.718 1.09-1.662 1.09-2.668 0-2.11-1.717-3.828-3.829-3.828zm-15.171-4c1.654 0 3 1.346 3 3s-1.346 3-3 3-3-1.346-3-3 1.346-3 3-3zm-14.396 17h-.604v-.604l10.519-11.221c.276.565.65 1.07 1.108 1.491zm15.636-9.174c2.155-.556 3.76-2.5 3.76-4.826 0-.754-.18-1.463-.481-2.105l.481-.481 6.086 6.086-5.586 5.586zm-15.636 30.174h-.604v-.604l14.023-14.958 1.54 1.539zm18.396-13.414-.562-.562-4.46-4.461-.564-.563 1.586-1.586 5.586 5.586zm-1.086-7.086 10.964-10.965c.346-.345.805-.535 1.293-.535 1.009 0 1.829.82 1.829 1.828 0 .481-.195.952-.536 1.293l-10.964 10.965zm13.586-5.586 6.086 6.086-.481.481c-.642-.301-1.351-.481-2.105-.481-2.326 0-4.27 1.605-4.826 3.76l-4.26-4.26zm-9.896 26.086h-.604v-.604l10.333-11.023c.422.458.926.832 1.491 1.108zm13.396-12c-1.654 0-3-1.346-3-3s1.346-3 3-3 3 1.346 3 3-1.346 3-3 3zm16.879-19c-.3 0-.581-.116-.793-.328l-19.758-19.758c-.208-.209-.328-.498-.328-.793 0-.618.503-1.121 1.121-1.121.3 0 .581.116.793.328l19.758 19.758c.208.209.328.498.328.793 0 .618-.503 1.121-1.121 1.121z"></path><path d="m40.757 32h8.485v2h-8.485z" transform="matrix(.707 -.707 .707 .707 -10.154 41.485)"></path><path d="m37.757 29h8.485v2h-8.485z" transform="matrix(.707 -.707 .707 .707 -8.912 38.485)"></path><path d="m35 15.172h2v5.657h-2z" transform="matrix(.707 -.707 .707 .707 -2.184 30.728)"></path><path d="m32 18.172h2v5.657h-2z" transform="matrix(.707 -.707 .707 .707 -5.184 29.485)"></path><path d="m29 21.172h2v5.657h-2z" transform="matrix(.707 -.707 .707 .707 -8.184 28.243)"></path></svg>