<svg xmlns="http://www.w3.org/2000/svg" height="512" viewBox="0 0 64 64" width="512"><path d="m42 24h2v2h-2z"></path><path d="m27 20v-2c-2.206 0-4 1.794-4 4s1.794 4 4 4h13v-2h-13c-1.103 0-2-.897-2-2s.897-2 2-2z"></path><path d="m43.657 7.343c-3.119-3.119-8.195-3.119-11.314 0l1.414 1.414c2.34-2.339 6.146-2.339 8.486 0z"></path><path d="m60 38c-1.302 0-2.402.839-2.816 2h-9.184v-9c0-.551.448-1 1-1h8c1.687 0 3.305-.716 4.44-1.964s1.692-2.932 1.531-4.622c-.285-2.991-2.928-5.344-6.047-5.412.147-1.006.072-2.033-.227-3.028-.756-2.511-2.895-4.42-5.447-4.865-.545-.095-1.091-.122-1.63-.093-1.341-5.276-6.084-9.016-11.62-9.016-6.617 0-12 5.383-12 12 0 .353.017.707.048 1.059-2.984.362-5.485 2.409-6.525 5.143-1.079-.171-2.177-.237-3.28-.184-8.213.378-14.903 7.113-15.23 15.331-.206 5.165 1.999 9.97 6.05 13.182.04.031.074.071.113.104-.71.549-1.176 1.4-1.176 2.365 0 .771.301 1.468.78 2-.479.532-.78 1.229-.78 2 0 1.654 1.346 3 3 3h.08c.488 3.387 3.401 6 6.92 6h2c3.519 0 6.432-2.613 6.92-6h.08c1.654 0 3-1.346 3-3 0-.771-.301-1.468-.78-2 .48-.532.78-1.229.78-2 0-.967-.468-1.82-1.18-2.369.014-.012.027-.027.042-.039 2.538-1.988 4.356-4.631 5.328-7.593h2.81v14.184c-1.161.414-2 1.514-2 2.816 0 1.654 1.346 3 3 3s3-1.346 3-3c0-1.302-.839-2.402-2-2.816v-14.183h4c1.654 0 3-1.346 3-3v-6c0-1.654-1.346-3-3-3h-13-1c-1.618 0-3.136-.635-4.272-1.787s-1.749-2.679-1.727-4.298c.044-3.162 2.752-5.87 5.913-5.914h.086c1.588 0 3.081.612 4.213 1.728 1.152 1.136 1.787 2.653 1.787 4.271h2c0-2.158-.847-4.181-2.383-5.696-1.252-1.234-2.852-2.005-4.554-2.229-.038-.357-.063-.716-.063-1.075 0-5.514 4.486-10 10-10 4.579 0 8.51 3.068 9.662 7.411-.782.276-1.517.684-2.165 1.229-1.587 1.335-2.497 3.288-2.497 5.36h2c0-1.48.65-2.875 1.784-3.829 1.15-.967 2.619-1.353 4.123-1.091 1.814.316 3.336 1.678 3.875 3.47.314 1.043.289 2.092-.073 3.116l-.473 1.334h2.549c2.16 0 4.003 1.583 4.196 3.604.108 1.146-.254 2.243-1.021 3.086-.757.832-1.835 1.31-2.96 1.31h-8c-1.654 0-3 1.346-3 3v15.184c-1.161.414-2 1.514-2 2.816 0 1.654 1.346 3 3 3s3-1.346 3-3c0-1.302-.839-2.402-2-2.816v-4.184h9.184c.414 1.161 1.514 2 2.816 2 1.654 0 3-1.346 3-3s-1.346-3-3-3zm-24 20c-.552 0-1-.449-1-1s.448-1 1-1 1 .449 1 1-.448 1-1 1zm-11-9c.552 0 1 .449 1 1s-.448 1-1 1h-16c-.552 0-1-.449-1-1s.448-1 1-1zm-7 12h-2c-2.414 0-4.434-1.721-4.899-4h11.798c-.465 2.279-2.485 4-4.899 4zm7-6h-16c-.552 0-1-.449-1-1s.448-1 1-1h16c.552 0 1 .449 1 1s-.448 1-1 1zm17-24v6c0 .551-.448 1-1 1h-8.303c.185-.98.303-1.979.303-3 0-1.719-.274-3.394-.804-5h8.804c.552 0 1 .449 1 1zm-20.696-3.383c.133.135.275.258.416.383h-4.904c-.414-1.161-1.514-2-2.816-2-1.654 0-3 1.346-3 3 0 1.302.839 2.402 2 2.816v7.369c-1.161.414-2 1.514-2 2.816 0 1.654 1.346 3 3 3s3-1.346 3-3c0-1.302-.839-2.402-2-2.816v-7.369c.847-.302 1.514-.969 1.816-1.816h10.184 1 2.062c.611 1.593.938 3.269.938 5 0 1.023-.118 2.026-.33 3h-4.854c-.414-1.161-1.514-2-2.816-2-1.654 0-3 1.346-3 3s1.346 3 3 3c1.302 0 2.402-.839 2.816-2h4.252c-.893 2.336-2.399 4.42-4.439 6.019-.355.277-.675.616-.976.981h-15.312c-.319-.38-.658-.736-1.036-1.035-3.544-2.812-5.474-7.017-5.294-11.537.286-7.189 6.14-13.081 13.324-13.413.912-.042 1.82.004 2.714.135-.026.243-.044.488-.047.736-.031 2.159.787 4.195 2.302 5.731zm-6.304 14.383c0 .551-.448 1-1 1s-1-.449-1-1 .448-1 1-1 1 .449 1 1zm-1-12c-.552 0-1-.449-1-1s.448-1 1-1 1 .449 1 1-.448 1-1 1zm10 9c0 .551-.448 1-1 1s-1-.449-1-1 .448-1 1-1 1 .449 1 1zm23 11c-.552 0-1-.449-1-1s.448-1 1-1 1 .449 1 1-.448 1-1 1zm13-8c-.552 0-1-.449-1-1s.448-1 1-1 1 .449 1 1-.448 1-1 1z"></path><path d="m7.682 31.364-1.863-.729c-.274.704-.483 1.438-.62 2.184l1.967.361c.113-.62.287-1.231.516-1.816z"></path><path d="m5 35c0 2.783.975 5.496 2.744 7.637l1.541-1.273c-1.473-1.785-2.285-4.045-2.285-6.364z"></path></svg>