<svg xmlns="http://www.w3.org/2000/svg" height="512" viewBox="0 0 64 64" width="512"><path d="m24 5h2v2h-2z"></path><path d="m14 5h8v2h-8z"></path><path d="m15 57h10v2h-10z"></path><path d="m31 57h2v2h-2z"></path><path d="m7 57h2v2h-2z"></path><path d="m7 51h26c1.103 0 2-.897 2-2v-34c0-1.103-.897-2-2-2h-26c-1.103 0-2 .897-2 2v34c0 1.103.897 2 2 2zm0-36h26l.001 34h-26.001z"></path><path d="m9 23h6v-6h-6zm2-4h2v2h-2z"></path><path d="m17 23h6v-6h-6zm2-4h2v2h-2z"></path><path d="m25 23h6v-6h-6zm2-4h2v2h-2z"></path><path d="m9 31h6v-6h-6zm2-4h2v2h-2z"></path><path d="m17 31h6v-6h-6zm2-4h2v2h-2z"></path><path d="m25 31h6v-6h-6zm2-4h2v2h-2z"></path><path d="m9 39h6v-6h-6zm2-4h2v2h-2z"></path><path d="m17 39h6v-6h-6zm2-4h2v2h-2z"></path><path d="m9 47h6v-6h-6zm2-4h2v2h-2z"></path><path d="m17 47h6v-6h-6zm2-4h2v2h-2z"></path><path d="m55 30h2v2h-2z"></path><path d="m29 45h2v2h-2z"></path><path d="m29 41h2v2h-2z"></path><path d="m29 37h2v2h-2z"></path><path d="m61 5h2v2h-2z"></path><path d="m57 5h2v2h-2z"></path><path d="m53 5h2v2h-2z"></path><path d="m53.472 1c-1.906 0-3.62 1.059-4.472 2.764l-4.628 9.255c-.125-.003-.246-.019-.372-.019-1.679 0-3.354.238-5 .693v-7.693c0-2.757-2.243-5-5-5h-28c-2.757 0-5 2.243-5 5v52c0 2.757 2.243 5 5 5h28c2.757 0 5-2.243 5-5v-7.693c1.646.455 3.322.693 5 .693.126 0 .247-.016.372-.019l4.628 9.255c.853 1.705 2.566 2.764 4.472 2.764h9.528v-2h-9.528c-1.144 0-2.172-.636-2.683-1.658l-4.265-8.53c9.285-1.241 16.476-9.193 16.476-18.812s-7.191-17.571-16.476-18.812l4.265-8.53c.511-1.023 1.539-1.658 2.683-1.658h9.528v-2zm-16.472 52h-34v-42h34zm-31-50h28c1.654 0 3 1.346 3 3v3h-34v-3c0-1.654 1.346-3 3-3zm28 58h-28c-1.654 0-3-1.346-3-3v-3h34v3c0 1.654-1.346 3-3 3zm5-25h5c.551 0 1 .448 1 1 0 1.654 1.346 3 3 3h3c.551 0 1 .448 1 1s-.449 1-1 1h-7c-1.654 0-3 1.346-3 3v3.719c-.672-.123-1.338-.297-2-.503zm21.872-6h-1.872v2h2c0 9.374-7.626 17-17 17-.333 0-.667-.023-1-.044v-3.956c0-.552.449-1 1-1h7c1.654 0 3-1.346 3-3s-1.346-3-3-3h-3c-.551 0-1-.448-1-1 0-1.654-1.346-3-3-3h-5v-18.216c1.643-.511 3.32-.784 5-.784 3.571 0 6.884 1.112 9.622 3h-6.622c-1.654 0-3 1.346-3 3s1.346 3 3 3h5c.551 0 1 .449 1 1s-.449 1-1 1h-8c-1.654 0-3 1.346-3 3s1.346 3 3 3h9v-2h-9c-.551 0-1-.449-1-1s.449-1 1-1h8c1.654 0 3-1.346 3-3s-1.346-3-3-3h-5c-.551 0-1-.449-1-1s.449-1 1-1h9.029c2.625 2.631 4.385 6.119 4.843 10z"></path><path d="m53 9h10v2h-10z"></path><path d="m61 57h2v2h-2z"></path><path d="m57 57h2v2h-2z"></path><path d="m53 57h2v2h-2z"></path><path d="m53 53h10v2h-10z"></path></svg>