<svg xmlns="http://www.w3.org/2000/svg" height="512" viewBox="0 0 64 64" width="512"><path d="m56.711 51-7.312-21.02c3.123-.207 5.601-2.806 5.601-5.98 0-2.649-1.727-4.898-4.113-5.691l2.113-.528v-7.562l-2.416-.603 1.281-2.134-5.347-5.347-2.134 1.281-.603-2.416h-7.562l-.603 2.416-2.134-1.281-3.638 3.638c-1.883-.498-3.841-.773-5.844-.773-12.682 0-23 10.318-23 23v11.721l3.063 1.021 1.024 11.258h7.913v11h2v-11.059c3.926-.436 7.095-3.407 7.833-7.235 1.084 1.189 2.568 2.003 4.241 2.226l.228 2.737-5.565 3.895c-.491-.352-1.088-.564-1.737-.564-1.654 0-3 1.346-3 3s1.346 3 3 3 3-1.346 3-3c0-.277-.05-.54-.12-.795l4.615-3.23.275 3.296c-1.041.471-1.77 1.514-1.77 2.729 0 1.654 1.346 3 3 3s3-1.346 3-3c0-1.389-.954-2.55-2.237-2.89l-.683-8.202c3.347-.522 5.92-3.416 5.92-6.908 0-3.86-3.14-7-7-7-1.483 0-2.858.467-3.991 1.257l-7.158-5.369c.088-.282.149-.577.149-.888 0-1.654-1.346-3-3-3s-3 1.346-3 3 1.346 3 3 3c.614 0 1.185-.187 1.661-.505l2.612 1.959-4.167 4.762c-.343-.136-.715-.216-1.106-.216-1.654 0-3 1.346-3 3s1.346 3 3 3 3-1.346 3-3c0-.532-.151-1.025-.395-1.459l4.272-4.883 2.651 1.988c-.954 1.197-1.528 2.708-1.528 4.354v3c0 3.86-3.14 7-7 7h-7.087l-.976-10.742-2.937-.979v-10.279c0-11.58 9.42-21 21-21 7.733 0 14.82 4.27 18.47 11h-13.47v3.095l-10 1v3.81l10 1v3.095h8.279l4.157 12.471c-1.376 2.057-3.076 3.849-5.084 5.31l-2.352 1.71v13.509h2v-12.491l1.528-1.111c1.787-1.3 3.357-2.835 4.693-4.573l4.919 14.756c.681 2.045 2.588 3.419 4.743 3.419h11.117v-12zm-36.711 6c-.551 0-1-.449-1-1s.449-1 1-1 1 .449 1 1-.449 1-1 1zm-7-16c-.551 0-1-.449-1-1s.449-1 1-1 1 .449 1 1-.449 1-1 1zm16 18c-.551 0-1-.449-1-1s.449-1 1-1 1 .449 1 1-.449 1-1 1zm-15-30c-.551 0-1-.449-1-1s.449-1 1-1 1 .449 1 1-.449 1-1 1zm14 6c2.757 0 5 2.243 5 5s-2.243 5-5 5-5-2.243-5-5 2.243-5 5-5zm5.791-30.347 2.158 1.296 1.222-.502.61-2.447h4.438l.611 2.446 1.222.502 2.158-1.296 3.138 3.138-1.296 2.158.502 1.222 2.446.611v4.438l-1.949.487-.534.206-.446 1.088h-2.337c.812-1.163 1.266-2.551 1.266-4 0-3.86-3.14-7-7-7-1.485 0-2.917.472-4.108 1.336-1.235-.747-2.534-1.386-3.893-1.892zm3.946 4.911c.697-.356 1.465-.564 2.263-.564 2.757 0 5 2.243 5 5 0 1.028-.321 2.013-.893 2.841-1.606-2.889-3.789-5.356-6.37-7.277zm1.263 10.436v1c0 .551-.449 1-1 1h-7v-2zm-18 4.095v-.19l8-.8v1.79zm10-.095h7c1.654 0 3-1.346 3-3v-1h8c2.206 0 4 1.794 4 4s-1.794 4-4 4h-18zm16.289 6 6.432 18.492-6.502 5.002-1.165-3.494h1.225c1.5 0 2.721-1.221 2.721-2.721 0-.293-.047-.583-.14-.861l-3.52-10.558c-.37-1.112-1.407-1.86-2.58-1.86h-3.039l-1.333-4zm-5.901 6h2.372c.311 0 .585.198.684.493l3.52 10.558c.023.074.036.151.036.228 0 .398-.323.721-.721.721h-1.892zm7.649 22.949-1.149-3.447 6.525-5.02.409 1.175c.279.803 1.038 1.343 1.889 1.343h1.076l-4.307 8h-1.597c-1.293 0-2.437-.824-2.846-2.051zm11.963 2.051h-5.249l4.307-8h.942z"></path><path d="m42 22h2v2h-2z"></path><path d="m46 22h2v2h-2z"></path><path d="m18.722 9.746c-4.725 1.368-8.692 4.477-11.171 8.752l1.73 1.003c2.219-3.828 5.77-6.61 9.998-7.834z"></path><path d="m22.944 9.029c-.708.04-1.418.119-2.11.235l.332 1.973c.62-.104 1.255-.175 1.89-.21z"></path><path d="m28 43c1.654 0 3-1.346 3-3s-1.346-3-3-3-3 1.346-3 3 1.346 3 3 3zm0-4c.551 0 1 .449 1 1s-.449 1-1 1-1-.449-1-1 .449-1 1-1z"></path></svg>